<svg xmlns="http://www.w3.org/2000/svg" viewBox="0 0 625 510" version="1.1" width="625" height="510">
	<path d="M 273 43.460 C 273 43.828, 277.170 48.713, 282.266 54.315 C 292.472 65.533, 297.647 72.318, 300.874 78.710 C 302.043 81.026, 303 83.098, 303 83.315 C 303 83.532, 296.430 81.749, 288.399 79.353 C 241.511 65.363, 205.929 65.617, 160.750 80.264 C 155.387 82.003, 151 83.708, 151 84.053 C 151 84.398, 155.613 86.628, 161.250 89.008 C 181.711 97.646, 199.323 107.485, 208.500 115.402 L 211.500 117.991 207 117.261 C 199.544 116.051, 160.236 116.434, 149 117.826 C 128.842 120.323, 105.374 125.918, 90 131.893 C 76.855 137.002, 68.631 141.034, 69.583 141.903 C 70.087 142.364, 73.861 143.742, 77.969 144.966 C 94.808 149.982, 119.080 161.082, 126.190 167.018 L 129.380 169.681 121.066 170.374 C 92.124 172.788, 60.707 184.070, 33.001 202 L 24.502 207.500 29.501 208.194 C 32.251 208.576, 39.675 209.558, 46 210.377 C 63.363 212.624, 90.500 221.418, 90.500 224.797 C 90.500 225.496, 86.658 227.770, 81.963 229.851 C 57.397 240.735, 34.905 257.862, 18.074 278.500 C 12.564 285.256, 6 294.391, 6 295.303 C 6 295.546, 9.487 294.939, 13.750 293.953 C 28.182 290.614, 37.552 289.747, 53.776 290.249 C 62.424 290.517, 71.075 291.285, 73 291.956 C 74.925 292.627, 77.108 293.365, 77.850 293.595 C 78.648 293.843, 76.807 295.792, 73.350 298.359 C 59.894 308.352, 43.177 327.860, 33.681 344.653 C 27.197 356.119, 16.137 383.471, 17.453 384.786 C 17.700 385.033, 21.186 383.452, 25.201 381.274 C 41.135 372.626, 60.227 366.093, 74.457 364.419 L 80.415 363.718 78.868 366.109 C 65.230 387.192, 57.617 406.146, 55.380 424.591 L 54.762 429.682 63.442 426.853 C 74.101 423.379, 82.161 422.017, 92.125 422.008 C 107.816 421.992, 109.948 423.692, 118.207 442.800 C 125.583 459.865, 130.717 468.555, 138.060 476.405 C 148.594 487.666, 155.424 489.231, 190.500 488.417 C 217.750 487.784, 221.331 487.055, 225.767 481.239 C 228.149 478.115, 228.500 476.748, 228.500 470.578 C 228.500 462.312, 226.233 456.819, 219.315 448.326 L 214.977 443 274.238 443.011 L 333.500 443.021 341.876 456.068 C 351.361 470.843, 358.265 478.899, 364.643 482.637 C 373.322 487.723, 376.359 488.120, 406 488.049 C 432.450 487.985, 433.667 487.897, 437.882 485.741 C 443.947 482.639, 446.221 478.248, 445.775 470.500 C 445.353 463.163, 442.735 457.513, 434.800 446.811 C 424.350 432.717, 422.488 427.248, 425.476 419.424 C 426.433 416.917, 429.080 413.069, 431.358 410.872 C 437.042 405.392, 457.349 395.620, 479.867 387.531 C 520.288 373.009, 543.394 362.520, 561.487 350.480 C 576.275 340.640, 603.252 313.377, 607.822 303.655 C 613.954 290.609, 609.518 275.913, 597.595 269.774 C 593.945 267.895, 591.652 267.650, 576.500 267.515 C 560.084 267.369, 559.216 267.257, 551.239 264.248 C 539.720 259.903, 531.847 254.850, 522.256 245.646 C 510.601 234.463, 493 210.889, 493 206.464 C 493 205.635, 494.109 203.279, 495.464 201.229 C 496.946 198.986, 499.710 190.727, 502.402 180.500 C 509.925 151.911, 516.050 137.026, 527.619 119.216 C 530.579 114.659, 533 110.469, 533 109.905 C 533 108.696, 522.867 109.445, 509.648 111.632 C 497.106 113.707, 486.023 117.400, 474.748 123.261 C 469.385 126.049, 464.862 128.143, 464.698 127.915 C 464.534 127.687, 462.732 123.209, 460.694 117.965 C 453.728 100.043, 443.059 83.944, 428.553 69.460 C 421.991 62.909, 408.238 51.558, 403.467 48.757 C 402.773 48.349, 402.445 53.620, 402.467 64.825 C 402.485 73.996, 402.133 83.647, 401.685 86.272 L 400.871 91.044 393.685 84.445 C 374.195 66.544, 350.060 54.511, 322.791 49.100 C 305.441 45.657, 273 41.983, 273 43.460 M 326.471 75.750 C 332.571 91.334, 334.841 107.542, 331.614 112.467 C 329.437 115.789, 323.915 115.828, 315 112.582 C 293.215 104.650, 281.069 100.853, 270.116 98.552 C 255.764 95.537, 235.485 93, 225.731 93 L 218.950 93 229.308 103.250 C 239.957 113.788, 246.310 122.173, 250.555 131.291 C 253.603 137.838, 253.602 139.489, 250.545 142.545 C 247.433 145.658, 243.355 145.721, 224.471 142.948 C 199.763 139.320, 154.400 139.259, 137.129 142.832 L 133.758 143.529 143.256 150.762 C 159.180 162.890, 172 177.944, 172 184.516 C 172 190.881, 170.253 191.419, 147.145 192.175 C 126.607 192.847, 110.271 194.693, 98.144 197.713 L 91.787 199.297 96.674 201.398 C 112.085 208.027, 134 225.093, 134 230.466 C 134 234.966, 130.971 236.812, 115.182 241.938 C 98.393 247.388, 82.911 254.369, 71.295 261.728 L 63.783 266.486 71.142 267.711 C 82.361 269.578, 94.453 273.660, 105.441 279.289 C 116.998 285.209, 119 286.930, 119 290.944 C 119 294.384, 116.986 296.197, 100.500 307.597 C 84.646 318.561, 76.557 325.427, 68.860 334.455 C 65.129 338.830, 62.241 342.574, 62.441 342.774 C 62.641 342.974, 65.406 342.657, 68.586 342.069 C 82.226 339.547, 105.920 341.477, 113.052 345.690 C 119.379 349.427, 119.028 350.281, 100.994 375 C 97.182 380.225, 92.438 387.650, 90.452 391.500 L 86.840 398.500 97.170 399.170 C 108.715 399.918, 112.257 400.788, 118.392 404.384 C 125.391 408.485, 130.807 415.319, 136.190 426.842 C 146.113 448.081, 147.935 451.593, 151.894 457.117 C 158.006 465.644, 159.248 466, 182.925 466 L 203.048 466 197.639 458.750 C 191.525 450.554, 189.558 446.974, 188.519 442.149 C 187.480 437.330, 189.753 430.314, 193.597 426.470 C 200.214 419.853, 198.807 419.958, 277.022 420.243 L 347.486 420.500 352.154 428.862 C 363.294 448.820, 372.395 460.560, 379.327 463.916 C 383.192 465.787, 385.438 466, 401.316 466 C 411.042 466, 419 465.802, 419 465.561 C 419 465.319, 416.637 461.825, 413.750 457.797 C 410.863 453.768, 406.932 447.103, 405.015 442.986 C 401.808 436.095, 401.529 434.741, 401.515 425.952 C 401.501 416.921, 401.703 415.992, 405.246 408.820 C 413.619 391.872, 431.778 380.456, 475.772 364.485 L 492.044 358.577 488.272 356.389 C 481.180 352.274, 475.176 347.569, 473.588 344.879 C 471.271 340.957, 471.549 336.429, 474.223 334.557 C 477.519 332.248, 479.985 332.621, 487.391 336.552 C 512.351 349.797, 535.445 344.990, 562.978 320.817 L 568.313 316.134 565.234 313.544 C 561.106 310.070, 558.253 303.841, 557.292 296.203 L 556.500 289.907 547.500 286.895 C 531.272 281.464, 518.863 273.749, 505.151 260.566 C 492.966 248.850, 477.745 228.448, 470.623 214.283 C 466.085 205.258, 467.678 192.360, 474.002 186.929 C 476.484 184.797, 477.583 182.237, 480.438 171.929 C 482.332 165.093, 485.230 155.563, 486.877 150.750 C 488.525 145.938, 489.538 142, 489.128 142 C 487.728 142, 476.571 149.110, 472.168 152.809 C 462.632 160.818, 460.690 162, 457.072 161.996 C 452.249 161.991, 447.194 158.778, 446.508 155.281 C 442.176 133.185, 435.961 116.313, 427.404 103.421 L 423.631 97.736 421.793 105.628 C 419.314 116.277, 414.419 125.871, 410.221 128.312 C 405.374 131.130, 402.236 129.371, 394.551 119.528 C 379.932 100.807, 360.867 87.077, 335.495 76.998 C 326.728 73.515, 325.532 73.350, 326.471 75.750 M 195.531 228.521 C 188.738 235.511, 182.737 244.978, 184.077 246.593 C 184.683 247.323, 199.487 260.153, 216.976 275.104 L 248.774 302.289 216.637 329.761 C 198.962 344.871, 184.130 357.873, 183.678 358.656 C 182.502 360.693, 187.195 368.246, 193.959 375.202 C 197.061 378.391, 200.037 381, 200.573 381 C 201.760 381, 209.609 374.473, 245.111 343.961 C 260.175 331.015, 274.627 318.666, 277.228 316.518 C 285.188 309.944, 287.283 301.691, 282.716 294.898 C 279.697 290.408, 203.087 224, 200.926 224 C 200.376 224, 197.948 226.035, 195.531 228.521 M 295.667 360.667 C 295.300 361.033, 295 366.208, 295 372.167 L 295 383 345 383 L 395 383 395 372.700 C 395 366.022, 394.578 361.978, 393.800 361.200 C 392.494 359.894, 296.959 359.375, 295.667 360.667" stroke="none" fill-rule="evenodd" data-fill-layer-id="trace-color" style="fill:#000000" data-layer-color="#000000" fill="#000000" />
</svg>