<?xml version="1.0" encoding="UTF-8" standalone="no"?>
<!-- Created with Inkscape (http://www.inkscape.org/) -->

<svg
   version="1.1"
   id="svg78"
   width="1024"
   height="1024"
   viewBox="0 0 1024 1024"
   sodipodi:docname="icon.svg"
   inkscape:export-filename="icon.png"
   inkscape:export-xdpi="48"
   inkscape:export-ydpi="48"
   inkscape:version="1.2.2 (b0a8486541, 2022-12-01)"
   xmlns:inkscape="http://www.inkscape.org/namespaces/inkscape"
   xmlns:sodipodi="http://sodipodi.sourceforge.net/DTD/sodipodi-0.dtd"
   xmlns="http://www.w3.org/2000/svg"
   xmlns:svg="http://www.w3.org/2000/svg">
  <sodipodi:namedview
     id="namedview44"
     pagecolor="#ffffff"
     bordercolor="#000000"
     borderopacity="0.25"
     inkscape:showpageshadow="2"
     inkscape:pageopacity="0.0"
     inkscape:pagecheckerboard="0"
     inkscape:deskcolor="#d1d1d1"
     showgrid="false"
     inkscape:zoom="0.80859375"
     inkscape:cx="512.61836"
     inkscape:cy="512"
     inkscape:window-width="1920"
     inkscape:window-height="1012"
     inkscape:window-x="0"
     inkscape:window-y="0"
     inkscape:window-maximized="1"
     inkscape:current-layer="g84" />
  <defs
     id="defs82" />
  <g
     id="g84">
    <path
       style="fill:#000000;stroke-width:1.38642"
       d="m 146.43751,771.31651 -1.62135,-12.6426 4.17727,-8.5003 c 2.2975,-4.67516 6.90044,-13.4914 10.22875,-19.59165 3.32831,-6.10025 6.32488,-11.92254 6.65903,-12.93843 0.376,-1.14306 12.48274,-4.66727 31.764,-9.24634 32.56174,-7.733 242.63559,-58.97497 350.03293,-85.38129 97.20678,-23.9007 136.84041,-33.33959 137.44662,-32.73338 0.30691,0.30691 -5.03693,11.72345 -11.87521,25.37009 -16.43459,32.79732 -30.25865,55.79746 -53.54651,89.08934 l -6.16997,8.82049 v 20.03886 c 0,21.27381 0.7664,24.59808 5.97226,25.90467 6.09875,1.53068 24.45256,19.06024 24.51424,23.41333 0.008,0.5719 -12.37629,1.03981 -27.52087,1.03981 h -27.5356 l -10.11152,-11.43796 c -5.56133,-6.29088 -20.09728,-22.20004 -32.30209,-35.3537 L 524.35891,713.25171 H 405.12842 285.89794 l -12.60433,8.1449 c -6.93237,4.47969 -23.83433,14.87268 -37.55988,23.09552 -13.72555,8.22284 -25.18183,15.13007 -25.45838,15.3494 -0.27656,0.21931 2.35586,4.69886 5.84983,9.95455 10.42109,15.67555 13.622,14.16303 -29.97284,14.16303 h -38.09348 z m 100.20775,4.21994 c -6.57506,-10.32073 -6.91056,-9.13677 4.53224,-15.99426 5.23149,-3.13514 16.67461,-10.11381 25.42916,-15.50813 8.75456,-5.39434 16.04101,-9.68424 16.19213,-9.53314 0.15111,0.15112 -0.59286,4.8281 -1.65326,10.3933 l -1.928,10.11853 11.73124,13.83816 c 6.45219,7.611 11.73125,14.12393 11.73125,14.47318 0,0.34927 -13.65051,0.63502 -30.33446,0.63502 H 252.0111 Z m 419.0335,1.14255 c -2.23147,-4.05541 -10.05756,-13.22371 -17.67685,-20.70851 l -13.67254,-13.43123 v -10.89339 -10.8934 l 15.59722,-23.65149 15.59722,-23.65147 22.87592,-5.19764 c 166.71753,-37.87982 273.75008,-73.10512 264.81648,-87.15338 -3.8517,-6.05699 -7.01158,-13.50904 -8.54488,-20.15142 l -1.5681,-6.79354 -20.94406,-6.98634 c -39.18824,-13.07211 -43.21013,-15.23386 -52.83168,-28.3968 -36.21522,-49.54494 -64.64782,-73.74904 -90.15462,-76.74687 -7.46788,-0.8777 -7.68143,-1.0291 -11.93301,-8.46008 -33.21351,-58.05117 -96.88439,-72.13985 -119.80863,-26.5105 -2.05178,4.08395 -3.86237,7.58028 -4.02354,7.76965 -0.16119,0.18937 -4.16934,-1.23076 -8.90703,-3.15586 -15.15574,-6.15833 -35.6038,-10.45907 -53.89505,-11.3355 l -16.98364,-0.81375 v -9.99512 c 0,-60.15643 -16.37048,-126.67834 -41.03365,-166.74136 l -3.6426,-5.91704 3.27486,1.26757 c 43.2172,16.72797 83.17737,44.9316 110.02916,77.65787 3.81265,4.64677 7.40001,8.45313 7.97191,8.45859 3.68957,0.0352 -0.34045,-39.70806 -5.65752,-55.79345 -3.10228,-9.38515 -3.10785,-9.3828 7.34172,-3.0904 36.32181,21.87187 62.92695,50.79477 84.14295,91.47326 l 7.95328,15.24922 2.81804,-6.37061 c 4.99535,-11.29283 7.42802,-24.68232 7.58258,-41.73482 l 0.14703,-16.22056 4.64938,4.43599 c 29.07877,27.74414 51.0235,78.06272 56.37543,129.26706 0.86858,8.30999 0.92588,8.4004 7.76204,12.24318 17.6352,9.91323 36.99866,28.88359 63.86243,62.56594 8.0013,10.03219 16.20169,18.90045 18.50058,20.00733 22.39532,10.78303 51.85732,19.99057 73.45012,22.95482 24.6595,3.38526 25.5153,4.37201 19.8587,22.89703 -15.1216,49.522 -55.30828,67.30792 -267.81231,118.52899 -29.62019,7.13952 -54.19828,13.32434 -54.61797,13.74405 -0.73808,0.73806 8.2894,27.7622 16.57448,49.61643 3.5243,9.29639 4.78897,11.10913 9.84453,14.11095 3.1904,1.89437 10.77721,8.48034 16.85957,14.63551 l 11.05883,11.1912 -25.61623,-10e-4 -25.61624,-0.001 -4.00431,-7.2773 z M 28.463995,731.51948 c 0,-39.3221 29.255171,-104.88167 63.129061,-141.46952 4.37559,-4.72615 7.58271,-8.96588 7.12695,-9.42163 -3.43649,-3.4365 -44.19927,6.35365 -61.213173,14.70178 -10.195036,5.00236 -10.021872,5.19819 -6.30362,-7.12911 11.44617,-37.94787 45.433233,-82.04497 81.523007,-105.77339 l 5.9295,-3.89855 12.09395,2.49307 c 32.17916,6.63351 66.73079,17.82478 100.82364,32.6568 16.3976,7.13374 16.39219,7.09889 1.38758,8.9513 -33.48913,4.13443 -76.98932,23.84307 -105.36426,47.7374 -13.20395,11.11896 -12.84359,10.18127 -8.90056,23.15935 10.8869,35.83316 37.52088,71.63274 67.45265,90.66525 l 5.87178,3.73365 -29.44091,7.25839 c -50.98306,12.56943 -105.593114,28.89067 -124.872217,37.3204 -8.624286,3.77097 -9.243378,3.70497 -9.243378,-0.98519 z M 213.3767,676.65957 c -31.92472,-17.14692 -54.92693,-42.24365 -69.39981,-75.7192 -5.97164,-13.81236 -6.19081,-13.25062 9.36813,-24.01147 57.53399,-39.7915 142.60545,-48.13337 164.81968,-16.16173 19.30443,27.78378 53.50656,54.73344 85.56689,67.42267 l 13.34872,5.28332 -8.18133,1.89316 c -4.49972,1.04124 -30.95326,7.48223 -58.78563,14.31329 -27.83238,6.83107 -64.95376,15.90055 -82.49197,20.15441 -17.53821,4.25385 -35.08554,8.51404 -38.99406,9.46706 -6.87506,1.67637 -7.37157,1.59037 -15.25062,-2.64151 z m 239.3317,-55.8009 C 326.97536,596.5018 266.82861,470.96338 324.93464,354.16904 l 6.55266,-13.17099 23.52383,0.11216 c 51.06879,0.24336 93.66135,16.78004 127.92808,49.66845 23.48727,22.54254 43.07362,54.10859 40.51304,65.29227 -10.85468,47.40929 5.36289,101.15562 40.77807,135.14181 l 5.02094,4.81835 -48.91309,12.13569 c -47.08313,11.6816 -60.16845,14.13729 -67.62977,12.69189 z m 132.5925,-39.34313 c -42.4479,-34.14759 -56.29149,-98.02031 -32.50959,-149.99542 4.17277,-9.11953 4.3775,-9.31845 10.54302,-10.24302 17.43947,-2.61521 50.71702,3.42533 69.95522,12.69827 l 5.19908,2.50598 0.034,9.79476 c 0.11702,33.83731 23.5037,61.35733 62.55212,73.60777 l 7.82245,2.45408 -3.83356,9.15226 c -2.10847,5.03374 -5.87794,14.63931 -8.37661,21.34573 -5.69469,15.28444 1.59532,12.1706 -67.21002,28.70795 -16.01315,3.84876 -30.14261,7.31618 -31.39879,7.70538 -1.42392,0.44117 -6.23528,-2.47102 -12.77721,-7.73374 z m 219.99638,-24.85085 c -18.7357,-8.50628 -18.36534,-37.73645 0.58435,-46.11879 17.91923,-7.92654 37.93634,6.10572 36.09193,25.30088 -1.75113,18.22426 -19.81073,28.47512 -36.67628,20.81791 z M 276.70956,512.00298 C 211.71945,477.74985 140.61724,456.42199 91.260026,456.37542 c -24.51222,-0.0232 -23.74091,1.3645 -8.81734,-15.86275 30.410874,-35.10523 78.325044,-63.98279 123.829624,-74.63131 5.90962,-1.38292 10.74476,-3.00637 10.74476,-3.60768 0,-3.91515 -36.88991,-17.79891 -57.23798,-21.54188 -16.0276,-2.94825 -15.83743,-2.501 -4.11109,-9.66803 38.37823,-23.45645 83.54973,-34.64923 135.33705,-33.5344 l 22.74667,0.48967 -4.30257,-5.54568 c -7.53638,-9.71381 -22.07423,-22.93495 -33.24605,-30.23497 -12.48287,-8.15668 -12.47778,-8.16458 6.77052,-10.5252 42.78987,-5.24776 94.63444,2.23328 134.80366,19.4518 l 6.12542,2.62568 -0.91345,-3.82964 c -2.84927,-11.94542 -16.83782,-35.32047 -29.15422,-48.71705 l -5.57841,-6.06767 9.00336,0.97985 c 34.55197,3.76042 69.66452,15.95061 101.72633,35.31686 19.79115,11.95442 22.2344,14.89915 27.6914,33.37503 9.99968,33.85612 13.43129,55.89042 14.36556,92.24086 l 0.74942,29.15876 -3.72571,7.35234 -3.72571,7.35234 -8.51777,-12.94196 c -36.47426,-55.41928 -97.93442,-86.47934 -174.46368,-88.16852 -35.5104,-0.7838 -31.23997,-2.97168 -43.94301,22.5134 -27.16043,54.48972 -32.82329,115.26658 -15.56884,167.09276 2.15789,6.48151 3.80903,11.90808 3.6692,12.05905 -0.13982,0.15097 -8.60325,-4.12589 -18.80761,-9.5041 z m 425.47421,-14.0446 c -37.47763,-12.77662 -52.91709,-44.24661 -37.89523,-77.2412 9.27984,-20.38263 24.45799,-25.04992 47.36237,-14.56395 12.58095,5.75975 41.91054,37.67307 41.91054,45.60257 0,2.67052 -9.55201,11.28511 -10.85391,9.78873 -0.62898,-0.72292 -4.05101,-5.47006 -7.60453,-10.54921 -20.0325,-28.63309 -46.18968,-33.608 -53.02785,-10.08552 -4.46801,15.36946 1.47503,30.14708 19.60025,48.73676 6.15781,6.31563 10.83697,11.46684 10.39815,11.44716 -0.43885,-0.0197 -4.88926,-1.43058 -9.88979,-3.13534 z"
       id="path246" />
  </g>
</svg>
